6-Regular.ufo
<glyph name="zero" format="2">
	<advance width="613"/>
	<unicode hex="0030"/>
	<outline>
		<contour>
			<point x="368" y="500" type="line"/>
			<point x="69" y="500" type="line"/>
			<point x="69" y="0" type="line"/>
			<point x="368" y="0" type="line"/>
			<point x="368" y="101" type="line"/>
			<point x="204" y="101" type="line"/>
			<point x="249" y="56" type="line"/>
			<point x="249" y="424" type="line"/>
			<point x="204" y="400" type="line"/>
			<point x="368" y="400" type="line"/>
		</contour>
		<contour>
			<point x="544" y="500" type="line"/>
			<point x="368" y="500" type="line"/>
			<point x="368" y="0" type="line"/>
			<point x="544" y="0" type="line"/>
		</contour>
	</outline>
</glyph>
<glyph name="one" format="2">
	<advance width="350"/>
	<unicode hex="0031"/>
	<guideline x="33" y="420" angle="65.6097"/>
	<outline>
		<contour>
			<point x="101" y="0" type="line"/>
			<point x="281" y="0" type="line"/>
			<point x="281" y="500" type="line"/>
			<point x="69" y="500" type="line"/>
			<point x="-4" y="339" type="line"/>
			<point x="146" y="339" type="line"/>
			<point x="101" y="384" type="line"/>
		</contour>
	</outline>
</glyph>
<glyph name="two" format="2">
	<advance width="511"/>
	<unicode hex="0032"/>
	<outline>
		<contour>
			<point x="63" y="500" type="line"/>
			<point x="63" y="340" type="line"/>
			<point x="327" y="340" type="line"/>
			<point x="282" y="385" type="line"/>
			<point x="282" y="306" type="line" smooth="yes"/>
			<point x="282" y="284"/>
			<point x="272" y="275"/>
			<point x="249" y="275" type="curve" smooth="yes"/>
			<point x="171" y="275" type="line" smooth="yes"/>
			<point x="85" y="275"/>
			<point x="63" y="252"/>
			<point x="63" y="168" type="curve" smooth="yes"/>
			<point x="63" y="0" type="line"/>
			<point x="460" y="0" type="line"/>
			<point x="460" y="160" type="line"/>
			<point x="198" y="160" type="line"/>
			<point x="223" y="105" type="line"/>
			<point x="223" y="230" type="line"/>
			<point x="148" y="195" type="line"/>
			<point x="310" y="195" type="line" smooth="yes"/>
			<point x="399" y="195"/>
			<point x="468" y="267"/>
			<point x="468" y="342" type="curve" smooth="yes"/>
			<point x="468" y="430"/>
			<point x="398" y="500"/>
			<point x="310" y="500" type="curve" smooth="yes"/>
		</contour>
	</outline>
</glyph>
<glyph name="three" format="2">
	<advance width="510"/>
	<unicode hex="0033"/>
	<guideline x="450" y="-180" angle="0"/>
	<guideline x="35" y="420" angle="294.3903"/>
	<outline>
		<contour>
			<point x="84" y="160" type="line"/>
			<point x="220" y="160" type="line" smooth="yes"/>
			<point x="252" y="160"/>
			<point x="276" y="149"/>
			<point x="276" y="116" type="curve" smooth="yes"/>
			<point x="276" y="85"/>
			<point x="253" y="70"/>
			<point x="220" y="70" type="curve" smooth="yes"/>
			<point x="57" y="70" type="line"/>
			<point x="57" y="-90" type="line"/>
			<point x="304" y="-90" type="line" smooth="yes"/>
			<point x="408" y="-90"/>
			<point x="462" y="-45"/>
			<point x="462" y="68" type="curve" smooth="yes"/>
			<point x="462" y="160" type="line"/>
			<point x="304" y="160" type="line"/>
			<point x="304" y="180" type="line"/>
			<point x="410" y="184"/>
			<point x="462" y="240"/>
			<point x="462" y="342" type="curve" smooth="yes"/>
			<point x="462" y="430"/>
			<point x="392" y="500"/>
			<point x="304" y="500" type="curve" smooth="yes"/>
			<point x="57" y="500" type="line"/>
			<point x="57" y="340" type="line"/>
			<point x="321" y="340" type="line"/>
			<point x="276" y="385" type="line"/>
			<point x="276" y="303" type="line"/>
			<point x="276" y="276"/>
			<point x="261" y="260"/>
			<point x="232" y="260" type="curve" smooth="yes"/>
			<point x="84" y="260" type="line"/>
		</contour>
	</outline>
</glyph>
<glyph name="four" format="2">
	<advance width="630"/>
	<unicode hex="0034"/>
	<outline>
		<contour>
			<point x="570" y="681" type="line"/>
			<point x="394" y="681" type="line"/>
			<point x="394" y="0" type="line"/>
			<point x="570" y="0" type="line"/>
		</contour>
		<contour>
			<point x="246" y="681" type="line"/>
			<point x="128" y="681"/>
			<point x="70" y="625"/>
			<point x="70" y="514" type="curve" smooth="yes"/>
			<point x="70" y="200" type="line"/>
			<point x="399" y="200" type="line"/>
			<point x="319" y="361" type="line"/>
			<point x="196" y="361" type="line"/>
			<point x="246" y="316" type="line"/>
		</contour>
	</outline>
</glyph>
<glyph name="five" format="2">
	<advance width="600"/>
	<unicode hex="0035"/>
	<outline>
		<contour>
			<point x="47" y="431" type="line"/>
			<point x="120" y="270" type="line"/>
			<point x="376" y="270" type="line"/>
			<point x="376" y="162" type="line"/>
			<point x="56" y="162" type="line"/>
			<point x="129" y="1" type="line"/>
			<point x="366" y="1" type="line" smooth="yes"/>
			<point x="494" y="1"/>
			<point x="556" y="57"/>
			<point x="556" y="167" type="curve" smooth="yes"/>
			<point x="556" y="257" type="line" smooth="yes"/>
			<point x="556" y="354"/>
			<point x="474" y="431"/>
			<point x="365" y="431" type="curve" smooth="yes"/>
			<point x="227" y="431" type="line"/>
			<point x="227" y="520" type="line"/>
			<point x="516" y="520" type="line"/>
			<point x="436" y="681" type="line"/>
			<point x="237" y="681" type="line" smooth="yes"/>
			<point x="109" y="681"/>
			<point x="47" y="625"/>
			<point x="47" y="514" type="curve" smooth="yes"/>
		</contour>
	</outline>
</glyph>
<glyph name="eight" format="2">
	<advance width="619"/>
	<unicode hex="0038"/>
	<outline>
		<contour>
			<point x="385" y="0" type="line"/>
			<point x="561" y="0" type="line"/>
			<point x="561" y="419" type="line"/>
			<point x="385" y="419" type="line"/>
		</contour>
		<contour>
			<point x="248" y="0" type="curve" smooth="yes"/>
			<point x="444" y="0" type="line"/>
			<point x="444" y="161" type="line"/>
			<point x="194" y="161" type="line"/>
			<point x="233" y="116" type="line"/>
			<point x="233" y="419" type="line"/>
			<point x="58" y="419" type="line"/>
			<point x="58" y="167" type="line" smooth="yes"/>
			<point x="58" y="56"/>
			<point x="120" y="0"/>
		</contour>
		<contour>
			<point x="165" y="258" type="line"/>
			<point x="561" y="258" type="line"/>
			<point x="561" y="681" type="line"/>
			<point x="298" y="681" type="line"/>
			<point x="226" y="520" type="line"/>
			<point x="427" y="520" type="line"/>
			<point x="385" y="565" type="line"/>
			<point x="385" y="419" type="line"/>
			<point x="165" y="419" type="line"/>
		</contour>
		<contour>
			<point x="58" y="258" type="line"/>
			<point x="233" y="258" type="line"/>
			<point x="233" y="681" type="line"/>
			<point x="58" y="681" type="line"/>
		</contour>
	</outline>
</glyph>
<glyph name="a" format="2">
	<advance width="478"/>
	<unicode hex="0061"/>
	<outline>
		<contour>
			<point x="270" y="0" type="line"/>
			<point x="450" y="0" type="line"/>
			<point x="450" y="334" type="line" smooth="yes"/>
			<point x="450" y="444"/>
			<point x="388" y="500"/>
			<point x="260" y="500" type="curve" smooth="yes"/>
			<point x="53" y="500" type="line"/>
			<point x="53" y="340" type="line"/>
			<point x="315" y="340" type="line"/>
			<point x="270" y="385" type="line"/>
		</contour>
		<contour>
			<point x="163" y="-10" type="curve" smooth="yes"/>
			<point x="249" y="-10"/>
			<point x="320" y="60"/>
			<point x="320" y="148" type="curve" smooth="yes"/>
			<point x="320" y="234"/>
			<point x="249" y="305"/>
			<point x="163" y="305" type="curve" smooth="yes"/>
			<point x="74" y="305"/>
			<point x="5" y="234"/>
			<point x="5" y="148" type="curve" smooth="yes"/>
			<point x="5" y="60"/>
			<point x="75" y="-10"/>
		</contour>
		<contour>
			<point x="223" y="106" type="curve"/>
			<point x="200" y="106"/>
			<point x="181" y="125"/>
			<point x="181" y="148" type="curve" smooth="yes"/>
			<point x="181" y="170"/>
			<point x="200" y="189"/>
			<point x="223" y="189" type="curve" smooth="yes"/>
			<point x="245" y="189"/>
			<point x="264" y="170"/>
			<point x="264" y="148" type="curve" smooth="yes"/>
			<point x="264" y="125"/>
			<point x="245" y="106"/>
		</contour>
	</outline>
</glyph>
<glyph name="b" format="2">
	<advance width="597"/>
	<unicode hex="0062"/>
	<outline>
		<contour>
			<point x="379" y="0" type="line" smooth="yes"/>
			<point x="507" y="0"/>
			<point x="569" y="56"/>
			<point x="569" y="167" type="curve" smooth="yes"/>
			<point x="569" y="500" type="line"/>
			<point x="210" y="500" type="line"/>
			<point x="210" y="339" type="line"/>
			<point x="433" y="339" type="line"/>
			<point x="388" y="384" type="line"/>
			<point x="388" y="116" type="line"/>
			<point x="433" y="161" type="line"/>
			<point x="210" y="161" type="line"/>
			<point x="290" y="0" type="line"/>
		</contour>
		<contour>
			<point x="39" y="0" type="line"/>
			<point x="215" y="0" type="line"/>
			<point x="215" y="700" type="line"/>
			<point x="39" y="700" type="line"/>
		</contour>
	</outline>
</glyph>
<glyph name="c" format="2">
	<advance width="447"/>
	<unicode hex="0063"/>
	<outline>
		<contour>
			<point x="218" y="0" type="curve" smooth="yes"/>
			<point x="421" y="0" type="line"/>
			<point x="421" y="161" type="line"/>
			<point x="164" y="161" type="line"/>
			<point x="209" y="116" type="line"/>
			<point x="209" y="384" type="line"/>
			<point x="164" y="339" type="line"/>
			<point x="421" y="339" type="line"/>
			<point x="421" y="500" type="line"/>
			<point x="28" y="500" type="line"/>
			<point x="28" y="167" type="line" smooth="yes"/>
			<point x="28" y="56"/>
			<point x="90" y="0"/>
		</contour>
	</outline>
</glyph>
<glyph name="d" format="2">
	<advance width="600"/>
	<unicode hex="0064"/>
	<outline>
		<contour>
			<point x="362" y="0" type="line"/>
			<point x="538" y="0" type="line"/>
			<point x="538" y="700" type="line"/>
			<point x="362" y="700" type="line"/>
		</contour>
		<contour>
			<point x="223" y="0" type="curve" smooth="yes"/>
			<point x="297" y="0" type="line"/>
			<point x="370" y="161" type="line"/>
			<point x="168" y="161" type="line"/>
			<point x="213" y="116" type="line"/>
			<point x="213" y="384" type="line"/>
			<point x="168" y="339" type="line"/>
			<point x="367" y="339" type="line"/>
			<point x="370" y="500" type="line"/>
			<point x="224" y="500" type="line" smooth="yes"/>
			<point x="115" y="500"/>
			<point x="33" y="423"/>
			<point x="33" y="326" type="curve" smooth="yes"/>
			<point x="33" y="166" type="line" smooth="yes"/>
			<point x="33" y="56"/>
			<point x="95" y="0"/>
		</contour>
	</outline>
</glyph>
<glyph name="e" format="2">
	<advance width="500"/>
	<unicode hex="0065"/>
	<outline>
		<contour>
			<point x="223" y="0" type="curve" smooth="yes"/>
			<point x="410" y="0" type="line"/>
			<point x="410" y="161" type="line"/>
			<point x="168" y="161" type="line"/>
			<point x="213" y="116" type="line"/>
			<point x="213" y="384" type="line"/>
			<point x="168" y="339" type="line"/>
			<point x="217" y="339" type="line"/>
			<point x="217" y="510" type="line"/>
			<point x="108" y="510"/>
			<point x="33" y="439"/>
			<point x="33" y="306" type="curve" smooth="yes"/>
			<point x="33" y="166" type="line" smooth="yes"/>
			<point x="33" y="56"/>
			<point x="95" y="0"/>
		</contour>
		<contour>
			<point x="321" y="195" type="curve" smooth="yes"/>
			<point x="409" y="195"/>
			<point x="479" y="265"/>
			<point x="479" y="353" type="curve" smooth="yes"/>
			<point x="479" y="439"/>
			<point x="409" y="510"/>
			<point x="321" y="510" type="curve" smooth="yes"/>
			<point x="235" y="510"/>
			<point x="164" y="439"/>
			<point x="164" y="353" type="curve" smooth="yes"/>
			<point x="164" y="265"/>
			<point x="235" y="195"/>
		</contour>
		<contour>
			<point x="261" y="311" type="curve"/>
			<point x="239" y="311"/>
			<point x="220" y="330"/>
			<point x="220" y="353" type="curve" smooth="yes"/>
			<point x="220" y="375"/>
			<point x="239" y="394"/>
			<point x="261" y="394" type="curve" smooth="yes"/>
			<point x="284" y="394"/>
			<point x="303" y="375"/>
			<point x="303" y="353" type="curve" smooth="yes"/>
			<point x="303" y="330"/>
			<point x="284" y="311"/>
		</contour>
	</outline>
</glyph>
<glyph name="f" format="2">
	<advance width="389"/>
	<unicode hex="0066"/>
	<outline>
		<contour>
			<point x="249" y="756" type="line" smooth="yes"/>
			<point x="121" y="756"/>
			<point x="59" y="703"/>
			<point x="59" y="592" type="curve" smooth="yes"/>
			<point x="59" y="339" type="line"/>
			<point x="398" y="339" type="line"/>
			<point x="398" y="500" type="line"/>
			<point x="195" y="500" type="line"/>
			<point x="240" y="455" type="line"/>
			<point x="240" y="643" type="line"/>
			<point x="195" y="595" type="line"/>
			<point x="418" y="595" type="line"/>
			<point x="338" y="756" type="line"/>
		</contour>
		<contour>
			<point x="235" y="439" type="line"/>
			<point x="59" y="439" type="line"/>
			<point x="59" y="0" type="line"/>
			<point x="235" y="0" type="line"/>
		</contour>
	</outline>
</glyph>
<glyph name="g" format="2">
	<advance width="587"/>
	<unicode hex="0067"/>
	<outline>
		<contour>
			<point x="528" y="100" type="line"/>
			<point x="528" y="500" type="line"/>
			<point x="348" y="500" type="line"/>
			<point x="348" y="100" type="line"/>
		</contour>
		<contour>
			<point x="209" y="500" type="line" smooth="yes"/>
			<point x="81" y="500"/>
			<point x="19" y="444"/>
			<point x="19" y="334" type="curve" smooth="yes"/>
			<point x="19" y="244" type="line" smooth="yes"/>
			<point x="19" y="147"/>
			<point x="101" y="70"/>
			<point x="210" y="70" type="curve" smooth="yes"/>
			<point x="356" y="70" type="line"/>
			<point x="283" y="231" type="line"/>
			<point x="154" y="231" type="line"/>
			<point x="199" y="116" type="line"/>
			<point x="199" y="384" type="line"/>
			<point x="154" y="339" type="line"/>
			<point x="356" y="339" type="line"/>
			<point x="283" y="500" type="line"/>
		</contour>
		<contour>
			<point x="528" y="109" type="line"/>
			<point x="348" y="109" type="line"/>
			<point x="348" y="-64" type="line"/>
			<point x="392" y="-19" type="line"/>
			<point x="59" y="-19" type="line"/>
			<point x="139" y="-180" type="line"/>
			<point x="338" y="-180" type="line" smooth="yes"/>
			<point x="466" y="-180"/>
			<point x="528" y="-124"/>
			<point x="528" y="-13" type="curve" smooth="yes"/>
		</contour>
	</outline>
</glyph>
<glyph name="h" format="2">
	<advance width="606"/>
	<unicode hex="0068"/>
	<outline>
		<contour>
			<point x="384" y="0" type="line"/>
			<point x="564" y="0" type="line"/>
			<point x="564" y="334" type="line" smooth="yes"/>
			<point x="564" y="444"/>
			<point x="502" y="500"/>
			<point x="374" y="500" type="curve" smooth="yes"/>
			<point x="300" y="500" type="line"/>
			<point x="227" y="339" type="line"/>
			<point x="429" y="339" type="line"/>
			<point x="384" y="384" type="line"/>
		</contour>
		<contour>
			<point x="59" y="0" type="line"/>
			<point x="235" y="0" type="line"/>
			<point x="235" y="700" type="line"/>
			<point x="59" y="700" type="line"/>
		</contour>
	</outline>
</glyph>
<glyph name="i" format="2">
	<advance width="314"/>
	<unicode hex="0069"/>
	<outline>
		<contour>
			<point x="77" y="0" type="line"/>
			<point x="257" y="0" type="line"/>
			<point x="257" y="500" type="line"/>
			<point x="65" y="500" type="line"/>
			<point x="-8" y="339" type="line"/>
			<point x="122" y="339" type="line"/>
			<point x="77" y="384" type="line"/>
		</contour>
		<contour>
			<point x="168" y="581" type="curve" smooth="yes"/>
			<point x="228" y="581"/>
			<point x="277" y="630"/>
			<point x="277" y="691" type="curve" smooth="yes"/>
			<point x="277" y="751"/>
			<point x="228" y="800"/>
			<point x="168" y="800" type="curve" smooth="yes"/>
			<point x="107" y="800"/>
			<point x="58" y="751"/>
			<point x="58" y="691" type="curve" smooth="yes"/>
			<point x="58" y="630"/>
			<point x="107" y="581"/>
		</contour>
	</outline>
</glyph>
<glyph name="j" format="2">
	<advance width="360"/>
	<unicode hex="006A"/>
	<outline>
		<contour>
			<point x="281" y="109" type="line"/>
			<point x="100" y="109" type="line"/>
			<point x="100" y="-64" type="line"/>
			<point x="145" y="-19" type="line"/>
			<point x="-78" y="-19" type="line"/>
			<point x="2" y="-180" type="line"/>
			<point x="91" y="-180" type="line" smooth="yes"/>
			<point x="219" y="-180"/>
			<point x="281" y="-124"/>
			<point x="281" y="-13" type="curve" smooth="yes"/>
		</contour>
		<contour>
			<point x="100" y="0" type="line"/>
			<point x="280" y="0" type="line"/>
			<point x="280" y="500" type="line"/>
			<point x="88" y="500" type="line"/>
			<point x="15" y="339" type="line"/>
			<point x="145" y="339" type="line"/>
			<point x="100" y="384" type="line"/>
		</contour>
		<contour>
			<point x="191" y="581" type="curve" smooth="yes"/>
			<point x="251" y="581"/>
			<point x="300" y="630"/>
			<point x="300" y="691" type="curve" smooth="yes"/>
			<point x="300" y="751"/>
			<point x="251" y="800"/>
			<point x="191" y="800" type="curve" smooth="yes"/>
			<point x="130" y="800"/>
			<point x="81" y="751"/>
			<point x="81" y="691" type="curve" smooth="yes"/>
			<point x="81" y="630"/>
			<point x="130" y="581"/>
		</contour>
	</outline>
</glyph>
<glyph name="k" format="2">
	<advance width="600"/>
	<unicode hex="006B"/>
	<outline>
		<contour>
			<point x="545" y="219" type="line" smooth="yes"/>
			<point x="545" y="347"/>
			<point x="489" y="409"/>
			<point x="378" y="409" type="curve" smooth="yes"/>
			<point x="75" y="409" type="line"/>
			<point x="75" y="0" type="line"/>
			<point x="236" y="0" type="line"/>
			<point x="236" y="383" type="line"/>
			<point x="236" y="248" type="line"/>
			<point x="429" y="248" type="line"/>
			<point x="384" y="283" type="line"/>
			<point x="384" y="0" type="line"/>
			<point x="545" y="0" type="line"/>
		</contour>
		<contour>
			<point x="60" y="0" type="line"/>
			<point x="236" y="0" type="line"/>
			<point x="236" y="700" type="line"/>
			<point x="60" y="700" type="line"/>
		</contour>
		<contour>
			<point x="373" y="587" type="line"/>
			<point x="223" y="382" type="line"/>
			<point x="374" y="382" type="line"/>
			<point x="534" y="587" type="line"/>
		</contour>
	</outline>
</glyph>
<glyph name="l" format="2">
	<advance width="337"/>
	<unicode hex="006C"/>
	<outline>
		<contour>
			<point x="225" y="700" type="line"/>
			<point x="44" y="700" type="line"/>
			<point x="44" y="167" type="line" smooth="yes"/>
			<point x="44" y="56"/>
			<point x="106" y="0"/>
			<point x="234" y="0" type="curve" smooth="yes"/>
			<point x="283" y="0" type="line"/>
			<point x="363" y="161" type="line"/>
			<point x="180" y="161" type="line"/>
			<point x="225" y="116" type="line"/>
		</contour>
	</outline>
</glyph>
<glyph name="m" format="2">
	<advance width="934"/>
	<unicode hex="006D"/>
	<outline>
		<contour>
			<point x="382" y="0" type="line"/>
			<point x="562" y="0" type="line"/>
			<point x="562" y="334" type="line" smooth="yes"/>
			<point x="562" y="444"/>
			<point x="500" y="500"/>
			<point x="372" y="500" type="curve" smooth="yes"/>
			<point x="298" y="500" type="line"/>
			<point x="225" y="339" type="line"/>
			<point x="427" y="339" type="line"/>
			<point x="382" y="384" type="line"/>
		</contour>
		<contour>
			<point x="57" y="0" type="line"/>
			<point x="233" y="0" type="line"/>
			<point x="233" y="500" type="line"/>
			<point x="57" y="500" type="line"/>
		</contour>
		<contour>
			<point x="712" y="0" type="line"/>
			<point x="892" y="0" type="line"/>
			<point x="892" y="334" type="line" smooth="yes"/>
			<point x="892" y="444"/>
			<point x="830" y="500"/>
			<point x="702" y="500" type="curve" smooth="yes"/>
			<point x="628" y="500" type="line"/>
			<point x="555" y="339" type="line"/>
			<point x="757" y="339" type="line"/>
			<point x="712" y="384" type="line"/>
		</contour>
	</outline>
</glyph>
<glyph name="n" format="2">
	<advance width="605"/>
	<unicode hex="006E"/>
	<outline>
		<contour>
			<point x="60" y="0" type="line"/>
			<point x="236" y="0" type="line"/>
			<point x="236" y="500" type="line"/>
			<point x="60" y="500" type="line"/>
		</contour>
		<contour>
			<point x="565" y="0" type="line"/>
			<point x="565" y="334" type="line" smooth="yes"/>
			<point x="565" y="444"/>
			<point x="503" y="500"/>
			<point x="375" y="500" type="curve" smooth="yes"/>
			<point x="301" y="500" type="line"/>
			<point x="228" y="339" type="line"/>
			<point x="430" y="339" type="line"/>
			<point x="386" y="384" type="line"/>
			<point x="386" y="0" type="line"/>
		</contour>
	</outline>
</glyph>
<glyph name="o" format="2">
	<advance width="579"/>
	<unicode hex="006F"/>
	<outline>
		<contour>
			<point x="145" y="0" type="line"/>
			<point x="542" y="0" type="line"/>
			<point x="542" y="500" type="line"/>
			<point x="278" y="500" type="line"/>
			<point x="206" y="339" type="line"/>
			<point x="407" y="339" type="line"/>
			<point x="362" y="384" type="line"/>
			<point x="362" y="116" type="line"/>
			<point x="407" y="161" type="line"/>
			<point x="145" y="161" type="line"/>
		</contour>
		<contour>
			<point x="37" y="0" type="line"/>
			<point x="213" y="0" type="line"/>
			<point x="213" y="500" type="line"/>
			<point x="37" y="500" type="line"/>
		</contour>
	</outline>
</glyph>
<glyph name="p" format="2">
	<advance width="562"/>
	<unicode hex="0070"/>
	<outline>
		<contour>
			<point x="39" y="-200" type="line"/>
			<point x="215" y="-200" type="line"/>
			<point x="215" y="500" type="line"/>
			<point x="39" y="500" type="line"/>
		</contour>
		<contour>
			<point x="354" y="500" type="curve" smooth="yes"/>
			<point x="280" y="500" type="line"/>
			<point x="207" y="339" type="line"/>
			<point x="409" y="339" type="line"/>
			<point x="364" y="384" type="line"/>
			<point x="364" y="116" type="line"/>
			<point x="409" y="161" type="line"/>
			<point x="280" y="161" type="line"/>
			<point x="207" y="0" type="line"/>
			<point x="353" y="0" type="line" smooth="yes"/>
			<point x="462" y="0"/>
			<point x="544" y="77"/>
			<point x="544" y="174" type="curve" smooth="yes"/>
			<point x="544" y="334" type="line" smooth="yes"/>
			<point x="544" y="444"/>
			<point x="482" y="500"/>
		</contour>
	</outline>
</glyph>
<glyph name="q" format="2">
	<advance width="563"/>
	<unicode hex="0071"/>
	<outline>
		<contour>
			<point x="524" y="-200" type="line"/>
			<point x="524" y="500" type="line"/>
			<point x="348" y="500" type="line"/>
			<point x="348" y="-200" type="line"/>
		</contour>
		<contour>
			<point x="209" y="500" type="line" smooth="yes"/>
			<point x="81" y="500"/>
			<point x="19" y="444"/>
			<point x="19" y="334" type="curve" smooth="yes"/>
			<point x="19" y="174" type="line" smooth="yes"/>
			<point x="19" y="77"/>
			<point x="101" y="0"/>
			<point x="210" y="0" type="curve" smooth="yes"/>
			<point x="356" y="0" type="line"/>
			<point x="283" y="161" type="line"/>
			<point x="154" y="161" type="line"/>
			<point x="199" y="116" type="line"/>
			<point x="199" y="384" type="line"/>
			<point x="154" y="339" type="line"/>
			<point x="356" y="339" type="line"/>
			<point x="283" y="500" type="line"/>
		</contour>
	</outline>
</glyph>
<glyph name="r" format="2">
	<advance width="396"/>
	<unicode hex="0072"/>
	<outline>
		<contour>
			<point x="388" y="339" type="line"/>
			<point x="388" y="500" type="line"/>
			<point x="278" y="500" type="line"/>
			<point x="205" y="339" type="line"/>
		</contour>
		<contour>
			<point x="37" y="0" type="line"/>
			<point x="213" y="0" type="line"/>
			<point x="213" y="500" type="line"/>
			<point x="37" y="500" type="line"/>
		</contour>
	</outline>
</glyph>
<glyph name="s" format="2">
	<advance width="488"/>
	<unicode hex="0073"/>
	<outline>
		<contour>
			<point x="53" y="130" type="line"/>
			<point x="292" y="130" type="line"/>
			<point x="292" y="144" type="line"/>
			<point x="292" y="172"/>
			<point x="278" y="185"/>
			<point x="250" y="185" type="curve" smooth="yes"/>
			<point x="181" y="185" type="line" smooth="yes"/>
			<point x="77" y="185"/>
			<point x="23" y="239"/>
			<point x="23" y="323" type="curve" smooth="yes"/>
			<point x="23" y="334" type="line" smooth="yes"/>
			<point x="23" y="445"/>
			<point x="86" y="500"/>
			<point x="213" y="500" type="curve" smooth="yes"/>
			<point x="428" y="500" type="line"/>
			<point x="428" y="370" type="line"/>
			<point x="158" y="370" type="line"/>
			<point x="199" y="395" type="line"/>
			<point x="199" y="260" type="line"/>
			<point x="158" y="315" type="line"/>
			<point x="325" y="315" type="line" smooth="yes"/>
			<point x="417" y="315"/>
			<point x="468" y="254"/>
			<point x="468" y="171" type="curve" smooth="yes"/>
			<point x="468" y="167"/>
			<point x="468" y="154"/>
			<point x="468" y="151" type="curve" smooth="yes"/>
			<point x="468" y="59"/>
			<point x="410" y="0"/>
			<point x="313" y="0" type="curve" smooth="yes"/>
			<point x="53" y="0" type="line"/>
		</contour>
	</outline>
</glyph>
<glyph name="t" format="2">
	<advance width="427"/>
	<unicode hex="0074"/>
	<outline>
		<contour>
			<point x="250" y="0" type="curve" smooth="yes"/>
			<point x="339" y="0" type="line"/>
			<point x="419" y="161" type="line"/>
			<point x="196" y="161" type="line"/>
			<point x="241" y="116" type="line"/>
			<point x="241" y="384" type="line"/>
			<point x="196" y="339" type="line"/>
			<point x="399" y="339" type="line"/>
			<point x="399" y="500" type="line"/>
			<point x="60" y="500" type="line"/>
			<point x="60" y="167" type="line" smooth="yes"/>
			<point x="60" y="56"/>
			<point x="122" y="0"/>
		</contour>
		<contour>
			<point x="236" y="400" type="line"/>
			<point x="236" y="600" type="line"/>
			<point x="60" y="600" type="line"/>
			<point x="60" y="400" type="line"/>
		</contour>
	</outline>
</glyph>
<glyph name="u" format="2">
	<advance width="570"/>
	<unicode hex="0075"/>
	<outline>
		<contour>
			<point x="208" y="500" type="line"/>
			<point x="28" y="500" type="line"/>
			<point x="28" y="166" type="line" smooth="yes"/>
			<point x="28" y="56"/>
			<point x="90" y="0"/>
			<point x="218" y="0" type="curve" smooth="yes"/>
			<point x="292" y="0" type="line"/>
			<point x="365" y="161" type="line"/>
			<point x="163" y="161" type="line"/>
			<point x="208" y="116" type="line"/>
		</contour>
		<contour>
			<point x="533" y="500" type="line"/>
			<point x="357" y="500" type="line"/>
			<point x="357" y="0" type="line"/>
			<point x="533" y="0" type="line"/>
		</contour>
	</outline>
</glyph>
<glyph name="x" format="2">
	<advance width="531"/>
	<unicode hex="0078"/>
	<outline>
		<contour>
			<point x="197" y="500" type="line"/>
			<point x="-6" y="500" type="line"/>
			<point x="171" y="253" type="line"/>
			<point x="150" y="287" type="line"/>
			<point x="354" y="0" type="line"/>
			<point x="546" y="0" type="line"/>
			<point x="287" y="351" type="line"/>
			<point x="282" y="359" type="line"/>
		</contour>
		<contour>
			<point x="411" y="262" type="line"/>
			<point x="516" y="500" type="line"/>
			<point x="340" y="500" type="line"/>
			<point x="271" y="351" type="line"/>
		</contour>
		<contour>
			<point x="152" y="315" type="line"/>
			<point x="2" y="0" type="line"/>
			<point x="178" y="0" type="line"/>
			<point x="262" y="183" type="line"/>
		</contour>
	</outline>
</glyph>
<glyph name="y" format="2">
	<advance width="600"/>
	<unicode hex="0079"/>
	<outline>
		<contour>
			<point x="404" y="-180" type="line"/>
			<point x="566" y="500" type="line"/>
			<point x="391" y="500" type="line"/>
			<point x="228" y="-180" type="line"/>
		</contour>
		<contour>
			<point x="167" y="0" type="line"/>
			<point x="315" y="139" type="line"/>
			<point x="225" y="500" type="line"/>
			<point x="45" y="500" type="line"/>
		</contour>
	</outline>
</glyph>
<glyph name="cedilla" format="2">
	<advance width="427"/>
	<unicode hex="00B8"/>
	<outline>
		<contour>
			<point x="208" y="0" type="curve" smooth="yes"/>
			<point x="411" y="0" type="line"/>
			<point x="411" y="161" type="line"/>
			<point x="154" y="161" type="line"/>
			<point x="199" y="116" type="line"/>
			<point x="199" y="384" type="line"/>
			<point x="154" y="339" type="line"/>
			<point x="411" y="339" type="line"/>
			<point x="411" y="500" type="line"/>
			<point x="18" y="500" type="line"/>
			<point x="18" y="167" type="line" smooth="yes"/>
			<point x="18" y="56"/>
			<point x="80" y="0"/>
		</contour>
		<contour>
			<point x="128" y="-62" type="line"/>
			<point x="128" y="-213" type="line"/>
			<point x="295" y="-147" type="line"/>
			<point x="295" y="6" type="line"/>
		</contour>
	</outline>
</glyph>
<glyph name="tilde" format="2">
	<advance width="516"/>
	<unicode hex="02DC"/>
	<outline>
		<contour>
			<point x="301" y="756" type="line"/>
			<point x="150" y="756" type="line"/>
			<point x="216" y="589" type="line"/>
			<point x="369" y="589" type="line"/>
		</contour>
		<contour>
			<point x="369" y="589" type="line"/>
			<point x="458" y="589"/>
			<point x="516" y="670"/>
			<point x="516" y="756" type="curve"/>
			<point x="369" y="756" type="line"/>
		</contour>
		<contour>
			<point x="148" y="756" type="line"/>
			<point x="58" y="756"/>
			<point x="0" y="676"/>
			<point x="0" y="589" type="curve"/>
			<point x="148" y="589" type="line"/>
		</contour>
	</outline>
</glyph>
<glyph name="f_f" format="2">
	<advance width="714"/>
	<outline>
		<contour>
			<point x="222" y="756" type="line" smooth="yes"/>
			<point x="94" y="756"/>
			<point x="32" y="703"/>
			<point x="32" y="592" type="curve" smooth="yes"/>
			<point x="32" y="339" type="line"/>
			<point x="371" y="339" type="line"/>
			<point x="371" y="500" type="line"/>
			<point x="168" y="500" type="line"/>
			<point x="213" y="455" type="line"/>
			<point x="213" y="643" type="line"/>
			<point x="168" y="595" type="line"/>
			<point x="341" y="595" type="line"/>
			<point x="261" y="756" type="line"/>
		</contour>
		<contour>
			<point x="208" y="439" type="line"/>
			<point x="32" y="439" type="line"/>
			<point x="32" y="0" type="line"/>
			<point x="208" y="0" type="line"/>
		</contour>
		<contour>
			<point x="543" y="756" type="line" smooth="yes"/>
			<point x="415" y="756"/>
			<point x="353" y="703"/>
			<point x="353" y="592" type="curve" smooth="yes"/>
			<point x="353" y="339" type="line"/>
			<point x="692" y="339" type="line"/>
			<point x="692" y="500" type="line"/>
			<point x="489" y="500" type="line"/>
			<point x="534" y="455" type="line"/>
			<point x="534" y="643" type="line"/>
			<point x="489" y="595" type="line"/>
			<point x="712" y="595" type="line"/>
			<point x="632" y="756" type="line"/>
		</contour>
		<contour>
			<point x="529" y="439" type="line"/>
			<point x="353" y="439" type="line"/>
			<point x="353" y="0" type="line"/>
			<point x="529" y="0" type="line"/>
		</contour>
	</outline>
</glyph>
<glyph name="n.001" format="2">
	<advance width="585"/>
	<outline>
		<contour>
			<point x="385" y="0" type="line"/>
			<point x="565" y="0" type="line"/>
			<point x="565" y="334" type="line" smooth="yes"/>
			<point x="565" y="444"/>
			<point x="503" y="500"/>
			<point x="375" y="500" type="curve" smooth="yes"/>
			<point x="301" y="500" type="line"/>
			<point x="228" y="339" type="line"/>
			<point x="430" y="339" type="line"/>
			<point x="385" y="384" type="line"/>
		</contour>
		<contour>
			<point x="60" y="0" type="line"/>
			<point x="236" y="0" type="line"/>
			<point x="236" y="500" type="line"/>
			<point x="60" y="500" type="line"/>
		</contour>
		<contour>
			<point x="361" y="756" type="line"/>
			<point x="210" y="756" type="line"/>
			<point x="276" y="589" type="line"/>
			<point x="429" y="589" type="line"/>
		</contour>
		<contour>
			<point x="429" y="589" type="line"/>
			<point x="518" y="589"/>
			<point x="576" y="670"/>
			<point x="576" y="756" type="curve"/>
			<point x="429" y="756" type="line"/>
		</contour>
		<contour>
			<point x="208" y="756" type="line"/>
			<point x="118" y="756"/>
			<point x="60" y="676"/>
			<point x="60" y="589" type="curve"/>
			<point x="208" y="589" type="line"/>
		</contour>
	</outline>
</glyph>
<glyph name="s.001" format="2">
	<advance width="454"/>
	<outline>
		<contour>
			<point x="181" y="148" type="line"/>
			<point x="181" y="125"/>
			<point x="200" y="106"/>
			<point x="222" y="106" type="curve"/>
			<point x="245" y="106"/>
			<point x="264" y="125"/>
			<point x="264" y="148" type="curve" smooth="yes"/>
			<point x="264" y="170"/>
			<point x="245" y="189"/>
			<point x="222" y="189" type="curve" smooth="yes"/>
			<point x="185" y="189" type="line" smooth="yes"/>
			<point x="57" y="189"/>
			<point x="-5" y="201"/>
			<point x="-5" y="311" type="curve" smooth="yes"/>
			<point x="-5" y="334" type="line" smooth="yes"/>
			<point x="-5" y="444"/>
			<point x="57" y="500"/>
			<point x="185" y="500" type="curve" smooth="yes"/>
			<point x="392" y="500" type="line"/>
			<point x="392" y="360" type="line"/>
			<point x="130" y="360" type="line"/>
			<point x="175" y="385" type="line"/>
			<point x="175" y="260" type="line"/>
			<point x="130" y="305" type="line"/>
			<point x="282" y="305" type="line" smooth="yes"/>
			<point x="371" y="305"/>
			<point x="440" y="234"/>
			<point x="440" y="148" type="curve" smooth="yes"/>
			<point x="440" y="60"/>
			<point x="370" y="-10"/>
			<point x="282" y="-10" type="curve" smooth="yes"/>
			<point x="196" y="-10"/>
			<point x="125" y="60"/>
			<point x="125" y="148" type="curve"/>
		</contour>
	</outline>
</glyph>
